<svg width="521" height="251" viewBox="0 0 521 251" fill="none" xmlns="http://www.w3.org/2000/svg">
<path d="M403.001 221.5C403.001 237.792 347.26 251 278.501 251C209.741 251 158.001 249.292 158.001 233C158.001 216.708 213.741 203.5 282.501 203.5C351.26 203.5 403.001 205.208 403.001 221.5Z" fill="black"/>
<path fill-rule="evenodd" clip-rule="evenodd" d="M136.001 235H290.501L364.001 213V202.5L369.501 104H224.501L219.001 202.5L136.001 223V235ZM227.501 194L233.501 113L361.001 112.5L356.001 194H227.501Z" fill="#AA9CE8"/>
<path d="M136.001 223V235H290.501M136.001 223H290.501M136.001 223L219.001 202.5M290.501 235V223M290.501 235L364.001 213M290.501 223C290.501 223 335.297 210.506 364.001 202.5M364.001 213C364.001 213 364.001 206.601 364.001 202.5M364.001 213V202.5M364.001 202.5C309.523 202.5 219.001 202.5 219.001 202.5M364.001 202.5L369.501 104H224.501L219.001 202.5M233.501 113L227.501 194H356.001L361.001 112.5L233.501 113Z" stroke="#AA9CE8"/>
<path d="M143.001 223.5H290.501M172.001 235.5H290.501M290.501 235.5V223.5M290.501 235.5L364.001 213.5C364.001 213.5 364.001 207.101 364.001 203M290.501 223.5C290.501 223.5 335.297 211.006 364.001 203M364.001 203C309.523 203 236.501 203 236.501 203" stroke="black"/>
<path d="M269.305 103.943L254.881 106.433M254.881 106.433L269.458 108.44M254.881 106.433L269.61 112.937M210.313 90.4347C210.313 90.4347 216.622 96.6239 220.664 100.59L209.45 94.4663" stroke="black"/>
<path d="M256.54 66.8539C255.049 68.1327 251.222 72.9064 248.295 76.6827C246.813 78.5958 244.565 79.7673 242.146 79.8494C239.26 79.9473 236.543 78.4854 235.035 76.0221L228.725 65.7185C228.569 65.4627 228.287 65.3109 227.987 65.3211C227.672 65.3318 227.389 65.5197 227.258 65.8064L223.401 74.2225C223.011 75.074 222.697 75.9585 222.463 76.8656L221.515 80.5463C220.917 82.8664 219.747 84.9995 218.111 86.7501C217.203 87.7223 216.434 88.8163 215.828 90.0006L214.904 91.8054C214.567 92.4633 214.33 93.1674 214.199 93.8949L213.398 98.368C213.244 99.2292 212.509 99.8657 211.635 99.8953C210.678 99.9278 209.751 99.5629 209.073 98.8873L202.369 92.2051L201.184 91.2839C197.926 88.7509 194.035 87.161 189.935 86.6875C187.434 86.3987 184.903 86.5308 182.446 87.0783L180.915 87.4196C179.117 87.8202 177.357 88.376 175.656 89.0808L170.474 91.2271C170.371 91.2696 170.276 91.3264 170.189 91.3959C169.44 91.9983 168.325 91.4872 168.292 90.5266L167.914 79.3658L167.528 76.5528C166.016 65.5087 163.398 54.6445 159.714 44.1235L154.999 34.9272C152.443 29.9418 149.135 25.3793 145.192 21.3998L142.304 18.4856C139.585 15.7418 136.393 13.5116 132.881 11.9022L127.252 9.32214C126.426 8.9435 125.523 8.76241 124.614 8.79322L123.704 8.82409C122.046 8.88035 120.562 9.86876 119.87 11.3772C118.926 13.437 119.709 15.8768 121.674 17.0034L127.34 20.2501C128.385 20.8493 129.33 21.6086 130.141 22.5006L135.728 28.6496C140.848 34.2851 144.925 40.7865 147.768 47.8499L148.943 50.7693C151.115 56.1653 152.705 61.7777 153.686 67.5112L153.91 68.8198C155.267 76.7552 155.602 84.832 154.904 92.8524L154.515 97.3304L151.56 113.44L151.433 116.516C150.973 127.755 152.276 138.998 155.296 149.834L161.818 165.122L168.907 182.391L178.551 209.188C179.113 210.75 179.964 212.193 181.058 213.442L181.779 214.265C183.273 215.97 185.297 217.123 187.526 217.54L188.031 217.634C188.421 217.707 188.817 217.737 189.212 217.723C191.026 217.662 192.688 216.698 193.643 215.155L194.012 214.559L195.321 215.159C195.797 215.377 196.317 215.481 196.84 215.463C198.419 215.41 199.749 214.267 200.04 212.714L200.288 211.386C200.356 211.023 200.383 210.654 200.371 210.286L200.135 203.345L199.779 192.851L199.535 185.644C199.529 185.453 199.559 185.263 199.623 185.083L200.91 181.52C201.199 180.722 202.376 180.908 202.405 181.755L202.524 185.273C202.816 193.881 204.284 202.409 206.886 210.62L208.608 214.682C209.26 216.219 210.32 217.549 211.672 218.529L213.487 219.845C213.963 220.19 214.54 220.366 215.127 220.346C215.827 220.322 216.489 220.022 216.967 219.51L218.151 218.242C219.137 219.469 220.644 220.159 222.216 220.106L222.288 220.103C224.606 220.025 226.585 218.404 227.119 216.147L228.5 210.311C228.725 209.357 229.059 208.431 229.493 207.551L239.138 188.014L248.102 172.846C255.941 159.581 261.334 145.017 264.023 129.846L264.34 128.062C266.168 117.75 266.584 107.238 265.577 96.8134C265.048 91.3361 264.177 85.8896 262.665 80.5986C260.571 73.2691 257.935 65.6587 256.54 66.8539Z" fill="black"/>
<path d="M218.151 218.242V218.242C219.137 219.469 220.644 220.159 222.216 220.106L222.288 220.103C224.606 220.025 226.585 218.404 227.119 216.147L228.5 210.311C228.725 209.357 229.059 208.431 229.493 207.551L239.138 188.014L248.102 172.846C255.941 159.581 261.334 145.017 264.023 129.846L264.34 128.062C266.168 117.75 266.584 107.238 265.577 96.8134V96.8134C265.048 91.3361 264.177 85.8896 262.665 80.5986C260.571 73.2691 257.935 65.6587 256.54 66.8539C255.049 68.1327 251.222 72.9064 248.295 76.6827C246.813 78.5958 244.565 79.7673 242.146 79.8494V79.8494C239.26 79.9473 236.543 78.4854 235.035 76.0221L228.725 65.7185C228.569 65.4627 228.287 65.3109 227.987 65.3211V65.3211C227.672 65.3318 227.389 65.5197 227.258 65.8064L223.401 74.2225C223.011 75.074 222.697 75.9585 222.463 76.8656L221.515 80.5463C220.917 82.8664 219.747 84.9995 218.111 86.7501V86.7501C217.203 87.7223 216.434 88.8163 215.828 90.0006L214.904 91.8054C214.567 92.4633 214.33 93.1674 214.199 93.8949L213.398 98.368C213.244 99.2292 212.509 99.8657 211.635 99.8953V99.8953V99.8953C210.678 99.9278 209.751 99.5629 209.073 98.8873L202.369 92.2051L201.184 91.2839C197.926 88.7509 194.035 87.161 189.935 86.6875V86.6875C187.434 86.3987 184.903 86.5308 182.446 87.0783L180.915 87.4196C179.117 87.8202 177.357 88.376 175.656 89.0808L170.474 91.2271C170.371 91.2696 170.276 91.3264 170.189 91.3959V91.3959C169.44 91.9983 168.325 91.4872 168.292 90.5266L167.914 79.3658L167.528 76.5528C166.016 65.5087 163.398 54.6445 159.714 44.1235V44.1235L154.999 34.9272C152.443 29.9418 149.135 25.3793 145.192 21.3998L142.304 18.4856C139.585 15.7418 136.393 13.5116 132.881 11.9022L127.252 9.32214C126.426 8.9435 125.523 8.76241 124.614 8.79322L123.704 8.82409C122.046 8.88035 120.562 9.86876 119.87 11.3772V11.3772C118.926 13.437 119.709 15.8768 121.674 17.0034L127.34 20.2501C128.385 20.8493 129.33 21.6086 130.141 22.5006L135.728 28.6496C140.848 34.2851 144.925 40.7865 147.768 47.8499L148.943 50.7693C151.115 56.1653 152.705 61.7777 153.686 67.5112L153.91 68.8198C155.267 76.7552 155.602 84.832 154.904 92.8525L154.515 97.3304L151.56 113.44L151.433 116.516C150.973 127.755 152.276 138.998 155.296 149.834V149.834L161.818 165.122L168.907 182.391L178.551 209.188C179.113 210.75 179.964 212.193 181.058 213.442L181.779 214.265C183.273 215.97 185.297 217.123 187.526 217.54L188.031 217.634C188.421 217.707 188.817 217.737 189.212 217.723V217.723C191.026 217.662 192.688 216.698 193.643 215.155L194.012 214.559M218.151 218.242L217.589 201.673C217.523 199.731 217.637 197.787 217.93 195.866V195.866C218.452 192.45 219.533 189.144 221.13 186.08L224.824 178.994M218.151 218.242L216.967 219.51C216.489 220.022 215.827 220.322 215.127 220.346V220.346C214.54 220.366 213.963 220.19 213.487 219.845L211.672 218.529C210.32 217.549 209.26 216.219 208.608 214.682L206.886 210.62V210.62C204.284 202.409 202.816 193.881 202.524 185.273L202.405 181.755V181.755C202.376 180.908 201.199 180.722 200.91 181.52L199.623 185.083C199.559 185.263 199.529 185.453 199.535 185.644L199.779 192.851L200.135 203.345L200.371 210.286C200.383 210.654 200.356 211.023 200.288 211.386L200.04 212.714C199.749 214.267 198.419 215.41 196.84 215.463V215.463C196.317 215.481 195.797 215.377 195.321 215.159L194.012 214.559M194.012 214.559L192.932 210.17C192.107 206.821 191.632 203.394 191.515 199.946L191.425 197.286C191.399 196.521 191.315 195.76 191.173 195.008V195.008C190.522 191.561 191.098 187.996 192.799 184.929L192.995 184.576" stroke="black"/>
<path d="M218.151 218.243L217.589 201.673C217.523 199.731 217.637 197.787 217.93 195.866V195.866C218.452 192.45 219.533 189.144 221.13 186.08L224.824 178.994M218.151 218.243L217.782 218.839C217.404 219.449 216.851 219.93 216.195 220.219V220.219C215.268 220.627 214.211 220.618 213.291 220.197L213.245 220.175C212.887 220.012 212.558 219.791 212.271 219.523L211.362 218.673C210.203 217.591 209.285 216.278 208.666 214.818L206.886 210.62V210.62C204.284 202.409 202.816 193.881 202.524 185.273L202.405 181.755V181.755C202.376 180.908 201.199 180.722 200.91 181.52L199.623 185.083C199.559 185.263 199.529 185.453 199.535 185.644L199.779 192.851L200.135 203.345L200.371 210.286C200.383 210.654 200.356 211.023 200.288 211.386L200.04 212.714C199.749 214.267 198.419 215.41 196.84 215.463V215.463C196.317 215.481 195.797 215.377 195.321 215.159L194.012 214.559M218.151 218.243L218.686 218.742C219.356 219.368 220.145 219.851 221.007 220.163L221.487 220.336C221.98 220.514 222.503 220.596 223.027 220.579V220.579C224.404 220.532 225.667 219.8 226.392 218.628L226.665 218.187C226.972 217.691 227.191 217.146 227.313 216.576L227.993 213.406L229.339 208.858M194.012 214.559L192.932 210.171C192.107 206.821 191.632 203.394 191.515 199.946L191.425 197.286C191.399 196.521 191.315 195.76 191.173 195.008V195.008C190.522 191.561 191.098 187.996 192.799 184.929L192.995 184.576M194.012 214.559L193.494 215.396C192.618 216.811 191.17 217.776 189.527 218.038V218.038C188.612 218.184 187.675 218.106 186.797 217.81L185.98 217.535C184.732 217.114 183.588 216.431 182.625 215.532L181.889 214.844C180.947 213.964 180.132 212.957 179.468 211.851L179.013 211.093C178.219 209.772 177.579 208.364 177.105 206.897L175.582 202.177" stroke="#444444"/>
<path d="M213.549 97.329L213.428 97.79C212.641 100.775 212.796 103.93 213.871 106.824V106.824L216.375 112.869C216.881 114.091 217.163 115.394 217.208 116.716V116.716" stroke="#444444"/>
<path d="M257.986 83.7679L257.109 76.3151C256.997 75.3622 255.738 75.0987 255.253 75.9269L251.717 81.9705C251.394 82.5232 251.666 83.2333 252.276 83.4281L256.688 84.8372C257.381 85.0584 258.071 84.49 257.986 83.7679Z" fill="#444444"/>
<path d="M233.253 78.7222L230.249 72.9002C229.843 72.1127 228.689 72.2036 228.411 73.045L226.432 79.0361C226.214 79.6967 226.72 80.3728 227.415 80.3492L232.398 80.1801C233.132 80.1553 233.59 79.3746 233.253 78.7222Z" fill="#444444"/>
<path d="M257.986 83.7679L257.109 76.3151C256.997 75.3622 255.738 75.0987 255.253 75.9269L251.717 81.9705C251.394 82.5232 251.666 83.2333 252.276 83.4281L256.688 84.8372C257.381 85.0584 258.071 84.49 257.986 83.7679Z" stroke="#444444"/>
<path d="M233.253 78.7222L230.249 72.9002C229.843 72.1127 228.689 72.2036 228.411 73.045L226.432 79.0361C226.214 79.6967 226.72 80.3728 227.415 80.3492L232.398 80.1801C233.132 80.1553 233.59 79.3746 233.253 78.7222Z" stroke="#444444"/>
<path d="M242.275 95.023L242.681 94.6436C244.54 92.9065 247.336 92.6407 249.489 93.9965C250.898 94.8838 251.84 96.3522 252.057 98.0031L252.124 98.5079C252.366 100.34 251.708 102.176 250.358 103.438C249.104 104.61 247.39 105.157 245.688 104.929L244.396 104.755C243.737 104.666 243.103 104.44 242.537 104.09C240.969 103.122 240.103 101.332 240.319 99.5018L240.412 98.7059C240.578 97.2966 241.238 95.9918 242.275 95.023Z" fill="white" stroke="white"/>
<path d="M244.168 96.9024L244.741 96.3241C245.433 95.626 246.44 95.343 247.394 95.5792C247.919 95.709 248.394 95.9882 248.763 96.3829L248.802 96.4248C249.343 97.0032 249.631 97.7725 249.604 98.5636L249.578 99.3354C249.567 99.6608 249.504 99.9823 249.39 100.287C248.859 101.718 247.346 102.53 245.86 102.182L245.107 102.006C244.817 101.938 244.541 101.818 244.293 101.653C243.514 101.135 243.089 100.225 243.193 99.2951L243.244 98.8353C243.325 98.1053 243.651 97.4242 244.168 96.9024Z" fill="black" stroke="black"/>
<path d="M225.165 92.1017L225.571 91.7222C227.43 89.9851 230.227 89.7193 232.38 91.0751C233.789 91.9625 234.73 93.4308 234.948 95.0817L235.015 95.5865C235.257 97.4188 234.599 99.2551 233.248 100.517C231.994 101.689 230.28 102.236 228.579 102.007L227.287 101.834C226.627 101.745 225.994 101.518 225.428 101.169C223.859 100.201 222.994 98.4111 223.209 96.5804L223.303 95.7845C223.469 94.3753 224.129 93.0704 225.165 92.1017Z" fill="white" stroke="white"/>
<path d="M227.059 93.9811L227.632 93.4027C228.323 92.7046 229.331 92.4216 230.285 92.6578C230.809 92.7876 231.285 93.0668 231.654 93.4615L231.693 93.5035C232.233 94.0818 232.522 94.8511 232.495 95.6422L232.469 96.414C232.458 96.7394 232.394 97.0609 232.281 97.3661C231.749 98.7968 230.237 99.6086 228.751 99.2605L227.998 99.0841C227.707 99.0161 227.432 98.8968 227.183 98.7317C226.404 98.2135 225.98 97.3036 226.084 96.3738L226.135 95.9139C226.216 95.1839 226.542 94.5028 227.059 93.9811Z" fill="black" stroke="black"/>
<rect x="357" y="74" width="46" height="46" rx="11" fill="black"/>
<rect x="353.5" y="70.5" width="45" height="45" rx="10.5" fill="white" stroke="black"/>
<path d="M380.746 102.61C379.546 102.61 378.826 102.49 378.616 102.28C378.406 102.07 377.476 101.5 375.736 100.63C375.316 100.42 374.206 99.79 372.826 99.1C372.526 98.95 371.446 98.35 371.086 98.17L370.546 97.9C370.456 97.87 370.306 97.78 370.096 97.66L369.256 97.24C368.956 97.09 368.626 96.88 368.266 96.7L364.306 94.6C363.976 93.67 363.736 92.92 363.646 92.32C363.556 91.72 363.316 90.85 362.986 89.68C363.466 88.63 363.856 87.85 364.186 87.4C364.426 87.07 364.666 86.71 365.146 85.96C365.326 85.69 365.506 85.33 365.686 85C365.986 84.91 366.646 84.73 366.916 84.67C367.576 84.55 368.596 84.22 369.136 84.04C369.466 83.92 369.796 83.83 370.186 83.74L372.376 85.09C373.336 85.69 374.206 86.08 375.016 86.59L375.856 87.13C377.056 87.91 377.716 88.33 377.866 88.48C378.016 88.63 378.496 88.9 379.306 89.38C380.506 90.1 381.736 90.79 382.936 91.51C383.326 91.75 383.596 91.93 383.866 92.14C384.346 92.53 385.126 93.34 385.606 94.15L387.256 96.91C388.966 99.79 389.866 101.29 389.926 101.5C389.986 101.68 390.016 101.83 390.016 101.92C390.016 102.37 389.566 102.49 389.026 102.49C388.336 102.49 387.616 102.52 386.926 102.52L381.586 102.58C381.316 102.58 381.016 102.61 380.746 102.61ZM365.206 93.52C365.266 93.52 365.356 93.49 365.446 93.49L366.046 93.4C366.256 93.4 366.646 93.28 367.186 93.01C367.666 92.77 368.626 92.38 368.866 92.38C368.926 92.32 369.406 91.51 369.466 91.33L369.616 90.94C369.766 90.52 370.006 90.22 370.186 90.01C370.366 89.8 370.516 89.59 370.636 89.38C370.756 89.2 370.936 88.93 371.206 88.6C371.146 88.45 370.996 88 370.696 87.28C370.396 86.56 370.216 86.11 370.126 85.84L369.826 84.88L369.016 85.18C368.596 85.33 368.146 85.51 367.966 85.54L366.466 85.96C366.376 86.08 365.956 86.71 365.896 86.83L365.026 88.21C364.726 88.69 364.366 89.32 364.006 89.86L364.426 91.27C364.576 91.81 364.696 91.99 364.786 92.26L365.206 93.52ZM383.326 94.9V92.86L381.286 91.54C381.016 91.36 380.566 91.12 380.146 90.91L379.546 90.61C379.366 90.52 379.216 90.46 379.126 90.4L376.816 88.93C376.516 88.75 376.306 88.63 376.186 88.54L371.026 85.3L371.296 85.99C371.416 86.32 371.566 86.71 371.566 86.86C371.566 87.13 371.986 88.24 372.136 88.57C372.226 88.72 372.466 88.9 372.856 89.11C373.276 89.32 373.546 89.53 373.726 89.71C373.906 89.89 374.086 90.04 374.356 90.22L374.716 90.46C374.956 90.64 375.226 90.76 375.406 90.82C376.126 91.06 376.126 91.09 376.726 91.45C376.966 91.6 377.236 91.75 377.566 91.87C378.076 92.05 378.376 92.23 379.426 92.92L381.346 93.82C381.736 94 382.066 94.18 382.276 94.3L383.326 94.9ZM367.006 91.12C366.406 91.12 365.986 90.46 365.986 89.68C365.986 88.39 367.246 86.98 368.146 86.98C368.866 86.98 369.226 87.49 369.226 88.3C369.226 88.99 367.996 91.12 367.006 91.12ZM381.226 99.16C382.006 98.53 382.426 97.99 382.546 97.6C382.666 97.21 382.756 96.85 382.906 96.55L383.086 96.16C382.456 95.77 381.886 95.41 381.316 94.99C380.866 94.84 380.686 94.78 380.266 94.48L379.666 94.06C378.946 93.55 378.496 93.31 378.256 93.31C377.986 93.31 377.686 93.16 377.266 92.86L375.886 91.84C375.646 91.66 375.286 91.51 374.266 91.15C373.936 91.03 373.636 90.88 373.426 90.7C373.186 90.52 372.976 90.4 372.766 90.28L372.346 90.04C372.196 89.92 372.016 89.86 371.806 89.74C371.446 90.16 371.236 90.46 371.236 90.61C371.236 90.79 371.116 91.03 370.906 91.36L370.066 92.62L370.456 92.89C370.666 93.04 370.936 93.19 371.146 93.28L371.536 93.46C371.956 93.67 372.316 93.88 372.646 94.12C372.946 94.33 373.156 94.48 373.306 94.57L377.146 96.7C377.416 96.85 377.896 97.18 378.376 97.48L380.176 98.62C380.326 98.71 380.506 98.8 380.686 98.89L381.226 99.16ZM379.006 101.14L380.446 99.94C380.326 99.88 380.206 99.82 380.116 99.73C379.996 99.67 379.876 99.58 379.726 99.49L379.426 99.28C379.366 99.22 379.216 99.13 379.006 99.01L377.206 97.93C377.086 97.84 376.786 97.66 376.306 97.48C375.646 97.24 375.226 96.94 374.806 96.73C374.566 96.46 374.386 96.31 374.266 96.16C374.176 96.07 373.966 95.95 373.606 95.8L373.216 95.65C372.796 95.5 372.466 95.32 372.166 95.02C371.896 94.75 371.656 94.57 371.446 94.54C371.206 94.51 370.936 94.39 370.666 94.21C370.036 93.79 369.586 93.55 369.106 93.34C368.926 93.43 368.146 93.64 367.966 93.67C367.546 93.73 367.246 93.88 366.826 94.09L366.286 94.36C367.336 95.02 368.206 95.62 369.256 96.1L370.186 96.52C370.396 96.61 370.636 96.73 370.876 96.82C371.086 96.91 371.506 97.09 372.106 97.42L373.906 98.38C374.506 98.71 375.106 99.07 375.706 99.4C376.096 99.61 376.456 99.85 376.846 100.06C377.266 100.3 378.196 100.78 379.006 101.14ZM380.266 101.53C380.416 101.53 380.956 101.5 381.616 101.5C382.336 101.5 383.086 101.47 384.016 101.47C385.036 101.47 386.026 101.5 387.046 101.5C387.526 101.5 388.066 100.57 388.066 100.12C388.066 99.91 387.646 99.22 387.226 98.62L386.806 98.02C386.476 97.54 385.936 96.76 385.606 96.1L385.366 95.62C385.246 95.38 384.976 94.96 384.736 94.63L384.286 94L384.226 94.36C384.196 94.6 384.196 94.84 384.196 95.11V95.29C384.226 95.35 384.226 95.41 384.226 95.44C384.226 95.56 384.346 95.8 384.526 96.1C384.706 96.43 384.916 96.79 385.186 97.18C384.796 96.88 384.316 96.58 384.076 96.58C383.926 96.58 383.806 96.67 383.806 96.94C383.806 97.33 384.676 98.29 385.486 99.04C385.276 98.98 385.066 98.95 384.856 98.89L384.196 98.62C384.016 98.53 383.596 98.5 383.356 98.5C382.756 98.5 382.306 99.1 382.306 99.4C382.306 99.76 382.636 100.03 383.146 100.42C382.696 100.42 382.456 100.45 382.306 100.45C382.096 100.45 381.886 100.48 381.646 100.48C380.866 100.48 380.326 101.02 379.966 101.5L380.266 101.53Z" fill="black"/>
<rect x="50" y="27" width="46" height="46" rx="11" fill="black"/>
<rect x="46.5" y="23.5" width="45" height="45" rx="10.5" fill="white" stroke="black"/>
<path d="M67.5645 54.6151V40.2116H70.4302V54.6151H67.5645ZM61.801 48.8409V45.9751H76.2044V48.8409H61.801Z" fill="black"/>
<rect x="4" y="198" width="46" height="46" rx="11" fill="black"/>
<rect x="0.5" y="194.5" width="45" height="45" rx="10.5" fill="white" stroke="black"/>
<path d="M20.7441 221.725V221.523C20.7583 220.202 20.8897 219.151 21.1383 218.369C21.394 217.588 21.7562 216.956 22.225 216.473C22.6937 215.99 23.2583 215.55 23.9189 215.152C24.345 214.882 24.7285 214.58 25.0694 214.246C25.4103 213.913 25.6802 213.529 25.8791 213.096C26.0779 212.663 26.1774 212.183 26.1774 211.658C26.1774 211.026 26.0282 210.479 25.7299 210.017C25.4316 209.555 25.0339 209.2 24.5368 208.952C24.0467 208.696 23.4998 208.568 22.8961 208.568C22.3493 208.568 21.8272 208.682 21.3301 208.909C20.8329 209.136 20.421 209.491 20.0943 209.974C19.7676 210.45 19.5794 211.065 19.5297 211.817H16.291C16.3407 210.539 16.6639 209.46 17.2605 208.579C17.8571 207.691 18.6454 207.02 19.6255 206.565C20.6127 206.111 21.7029 205.884 22.8961 205.884C24.2029 205.884 25.3464 206.129 26.3265 206.619C27.3066 207.102 28.0666 207.78 28.6064 208.653C29.1532 209.52 29.4267 210.532 29.4267 211.69C29.4267 212.485 29.3024 213.202 29.0538 213.842C28.8052 214.474 28.4501 215.038 27.9885 215.536C27.5339 216.033 26.987 216.473 26.3478 216.857C25.7441 217.233 25.2541 217.624 24.8777 218.028C24.5083 218.433 24.2385 218.913 24.068 219.467C23.8976 220.021 23.8052 220.706 23.791 221.523V221.725H20.7441ZM22.3528 228.202C21.7704 228.202 21.2697 227.996 20.8507 227.585C20.4316 227.165 20.2221 226.661 20.2221 226.072C20.2221 225.489 20.4316 224.992 20.8507 224.58C21.2697 224.161 21.7704 223.952 22.3528 223.952C22.9281 223.952 23.4252 224.161 23.8443 224.58C24.2704 224.992 24.4835 225.489 24.4835 226.072C24.4835 226.462 24.3841 226.821 24.1852 227.148C23.9934 227.467 23.7377 227.723 23.4181 227.915C23.0985 228.107 22.7434 228.202 22.3528 228.202Z" fill="black"/>
<rect x="440" y="4" width="46" height="46" rx="11" fill="black"/>
<rect x="436.5" y="0.5" width="45" height="45" rx="10.5" fill="white" stroke="black"/>
<path d="M459.006 15.8469V13.3636C460.367 13.3636 461.64 13.6193 462.822 14.1307C464.011 14.6357 465.053 15.3388 465.948 16.2401C466.849 17.1413 467.552 18.1864 468.057 19.3754C468.568 20.5579 468.824 21.8267 468.824 23.1818C468.824 24.5369 468.572 25.8089 468.067 26.9979C467.562 28.1804 466.859 29.2223 465.957 30.1236C465.056 31.0249 464.011 31.7312 462.822 32.2425C461.64 32.7475 460.367 33 459.006 33C457.651 33 456.379 32.7475 455.19 32.2425C454.007 31.7312 452.966 31.0249 452.064 30.1236C451.163 29.2223 450.457 28.1804 449.945 26.9979C449.44 25.8089 449.188 24.5369 449.188 23.1818H451.671C451.671 24.1918 451.86 25.141 452.237 26.0295C452.614 26.918 453.138 27.6978 453.809 28.369C454.487 29.0401 455.27 29.5675 456.158 29.951C457.047 30.3281 457.996 30.5167 459.006 30.5167C460.022 30.5167 460.975 30.3281 461.863 29.951C462.752 29.5675 463.532 29.0401 464.203 28.369C464.874 27.6978 465.398 26.9212 465.775 26.0391C466.152 25.1506 466.341 24.1982 466.341 23.1818C466.341 22.1655 466.149 21.2163 465.766 20.3342C465.388 19.4457 464.864 18.6658 464.193 17.9947C463.522 17.3235 462.742 16.7994 461.854 16.4222C460.972 16.0387 460.022 15.8469 459.006 15.8469ZM459.562 20.7464L453.56 14.7827L459.562 8.81889V20.7464Z" fill="black"/>
<rect x="475" y="173" width="46" height="46" rx="11" fill="black"/>
<rect x="471.5" y="169.5" width="45" height="45" rx="10.5" fill="white" stroke="black"/>
<path d="M488.193 199.71L487.023 198.45L490.683 194.85C490.143 194.19 489.733 193.49 489.453 192.75C489.193 192.01 489.063 191.22 489.063 190.38C489.063 189.1 489.373 187.94 489.993 186.9C490.633 185.84 491.483 185 492.543 184.38C493.603 183.74 494.763 183.42 496.023 183.42C497.303 183.42 498.463 183.74 499.503 184.38C500.563 185 501.403 185.84 502.023 186.9C502.663 187.94 502.983 189.1 502.983 190.38C502.983 191.64 502.663 192.8 502.023 193.86C501.403 194.92 500.563 195.77 499.503 196.41C498.463 197.03 497.303 197.34 496.023 197.34C495.263 197.34 494.543 197.23 493.863 197.01C493.183 196.79 492.543 196.46 491.943 196.02L488.193 199.71ZM496.023 195.45C496.943 195.45 497.783 195.23 498.543 194.79C499.323 194.33 499.943 193.72 500.403 192.96C500.863 192.18 501.093 191.32 501.093 190.38C501.093 189.44 500.863 188.59 500.403 187.83C499.943 187.05 499.333 186.44 498.573 186C497.813 185.54 496.963 185.31 496.023 185.31C495.083 185.31 494.223 185.54 493.443 186C492.683 186.44 492.073 187.05 491.613 187.83C491.173 188.59 490.953 189.44 490.953 190.38C490.953 191.32 491.173 192.18 491.613 192.96C492.073 193.72 492.683 194.33 493.443 194.79C494.223 195.23 495.083 195.45 496.023 195.45Z" fill="black"/>
</svg>
