<svg width="48" height="55" viewBox="0 0 48 55" fill="none" xmlns="http://www.w3.org/2000/svg">
<path d="M7.94572 30.4538V30.4538C7.52497 27.3259 8.02704 24.0525 10.176 21.741C12.7612 18.9603 16.664 16.16 21.4586 16.0101C28.7088 15.7836 33.5423 17.0486 35.0527 17.7094C36.8698 18.7477 40.1619 22.3555 40.0008 28.8818C39.9799 29.7297 40.8131 30.3824 41.6073 30.0846L43.549 29.3564L45.2241 20.5857C45.7932 17.6057 45.4437 14.5232 44.2218 11.7464L43.7846 10.7526C43.2555 9.55003 42.4873 8.4676 41.5268 7.57113V7.57113C39.7324 5.89637 37.3694 4.96494 34.9148 4.96494H34.2031V4.96494C32.5352 4.96494 30.8987 4.51166 29.4685 3.65355L28.6346 3.15321C26.8967 2.11047 24.9347 1.49834 22.9122 1.36785L21.0304 1.24644C18.5155 1.0842 15.9962 1.4857 13.6564 2.42162V2.42162C10.4393 3.70847 7.69475 5.95191 5.79368 8.84877L5.66414 9.04618C3.77384 11.9266 2.76674 15.2968 2.76674 18.7421V21.0416C2.76674 24.0396 3.65358 26.9706 5.31564 29.4657V29.4657C6.31351 29.403 7.22897 29.8605 7.94572 30.4538Z" fill="black"/>
<path d="M27.202 36.6891C26.7813 37.0571 26.4171 37.485 26.1208 37.959L25.1628 39.4919L25.7961 41.0752C26.1183 41.8807 26.6307 42.5964 27.2895 43.1611V43.1611C27.9233 43.7044 28.675 44.0927 29.485 44.2952L29.7307 44.3566C30.2423 44.4845 30.7678 44.5492 31.2952 44.5492H34.4345H36.0732C37.0028 44.5492 37.8944 44.1799 38.5518 43.5225V43.5225C38.9837 43.0906 39.2952 42.5534 39.4556 41.964L39.6181 41.3666C39.7828 40.761 39.8354 40.1303 39.7732 39.5057L39.7099 38.871C39.5742 37.5085 38.7492 36.3109 37.5245 35.6986V35.6986C36.9706 35.4216 36.3598 35.2774 35.7406 35.2774H32.7488H30.959C29.577 35.2774 28.242 35.779 27.202 36.6891V36.6891Z" fill="black"/>
<path d="M22.2417 39.0462C21.9486 37.8735 21.3006 36.8198 20.3864 36.0289V36.0289C19.6046 35.3526 18.6582 34.8946 17.6427 34.7012L16.0359 34.3952C15.1937 34.2348 14.3341 34.1857 13.4792 34.2491L12.1342 34.3489C11.3768 34.4051 10.6458 34.6511 10.0086 35.0641V35.0641C8.72219 35.898 7.94572 37.3266 7.94572 38.8596V38.9299V39.4751C7.94572 40.1184 8.07834 40.7549 8.3353 41.3447V41.3447C8.76342 42.3273 9.51582 43.1332 10.4668 43.6278L10.9142 43.8605C11.7842 44.3129 12.7505 44.5492 13.7312 44.5492H16.172H18.1726C19.3894 44.5492 20.5351 43.9763 21.2651 43.0029V43.0029C21.6115 42.5412 21.85 42.0077 21.9632 41.4417L22.3531 39.4919L22.2417 39.0462Z" fill="black"/>
<path fill-rule="evenodd" clip-rule="evenodd" d="M2.19995 31.5867C0.522891 33.9625 0.842927 36.245 1.71105 37.9554C2.6093 39.7253 4.72127 40.2812 6.70016 40.129V40.129C7.05158 40.102 7.3763 40.3176 7.48775 40.6519L8.39039 43.3598C9.15974 45.6679 10.5092 47.7395 12.3094 49.3761V49.3761C14.5721 51.4331 17.4385 52.7046 20.482 53.0016L23.5537 53.3012C26.0932 53.549 28.6564 53.257 31.0751 52.4443L33.3405 51.6831C34.9726 51.1347 36.4246 50.1524 37.5408 48.8415V48.8415C38.6344 47.5571 39.3656 46.0044 39.6592 44.3432L40.3907 40.2034C40.516 39.4945 41.1828 39.0142 41.8948 39.1199L43.2582 39.3225C43.9927 39.4316 44.7418 39.2668 45.3628 38.8596V38.8596C46.0979 38.3776 46.5872 37.5997 46.7034 36.7284L46.8967 35.2786C47.0218 34.3402 46.9312 33.3855 46.6318 32.4873L46.2602 31.3723C46.0613 30.7757 45.6768 30.2583 45.1629 29.8957L45.0929 29.8462C44.6411 29.5275 44.1019 29.3564 43.549 29.3564V29.3564L41.6073 30.0846C40.8131 30.3824 39.9799 29.7297 40.0008 28.8818C40.1619 22.3555 36.8698 18.7477 35.0527 17.7094C33.5423 17.0486 28.7088 15.7836 21.4586 16.0101C16.664 16.16 12.7612 18.9603 10.176 21.741C8.02704 24.0525 7.52497 27.3259 7.94572 30.4538V30.4538C7.22897 29.8605 6.31351 29.403 5.31564 29.4657C4.32058 29.5283 3.24357 30.1082 2.19995 31.5867ZM17.6427 34.7012C18.6582 34.8946 19.6046 35.3526 20.3864 36.0289V36.0289C21.3006 36.8198 21.9486 37.8735 22.2417 39.0462L22.3531 39.4919H25.1628L26.1208 37.959C26.4171 37.485 26.7813 37.0571 27.202 36.6891V36.6891C28.242 35.779 29.577 35.2774 30.959 35.2774H32.7488H35.7406C36.3598 35.2774 36.9706 35.4216 37.5245 35.6986V35.6986C38.7492 36.3109 39.5742 37.5085 39.7099 38.871L39.7732 39.5057C39.8354 40.1303 39.7828 40.761 39.6181 41.3666L39.4556 41.964C39.2952 42.5534 38.9837 43.0906 38.5518 43.5225V43.5225C37.8944 44.1799 37.0028 44.5492 36.0732 44.5492H34.4345H31.2952C30.7678 44.5492 30.2423 44.4845 29.7307 44.3566L29.485 44.2952C28.675 44.0927 27.9233 43.7044 27.2895 43.1611V43.1611C26.6307 42.5964 26.1183 41.8807 25.7961 41.0752L25.1628 39.4919H22.3531L21.9632 41.4417C21.85 42.0077 21.6115 42.5412 21.2651 43.0029V43.0029C20.5351 43.9763 19.3894 44.5492 18.1726 44.5492H16.172H13.7312C12.7505 44.5492 11.7842 44.3129 10.9142 43.8605L10.4668 43.6278C9.51582 43.1332 8.76342 42.3273 8.3353 41.3447V41.3447C8.07834 40.7549 7.94572 40.1184 7.94572 39.4751V38.9299V38.8596C7.94572 37.3266 8.72219 35.898 10.0086 35.0641V35.0641C10.6458 34.6511 11.3768 34.4051 12.1342 34.3489L13.4792 34.2491C14.3341 34.1857 15.1937 34.2348 16.0359 34.3952L17.6427 34.7012Z" fill="white"/>
<path d="M8.99699 31.5867C8.73507 31.2156 8.37624 30.8102 7.94572 30.4538M7.94572 30.4538V30.4538C7.52497 27.3259 8.02704 24.0525 10.176 21.741C12.7612 18.9603 16.664 16.16 21.4586 16.0101C28.7088 15.7836 33.5423 17.0486 35.0527 17.7094C36.8698 18.7477 40.1619 22.3555 40.0008 28.8818C39.9799 29.7297 40.8131 30.3824 41.6073 30.0846L43.549 29.3564M7.94572 30.4538C7.22897 29.8605 6.31351 29.403 5.31564 29.4657M5.31564 29.4657C4.32058 29.5283 3.24357 30.1082 2.19995 31.5867C0.522891 33.9625 0.842927 36.245 1.71105 37.9554C2.6093 39.7253 4.72127 40.2812 6.70016 40.129V40.129C7.05158 40.102 7.3763 40.3176 7.48775 40.6519L8.39039 43.3598C9.15974 45.6679 10.5092 47.7395 12.3094 49.3761V49.3761C14.5721 51.4331 17.4385 52.7046 20.482 53.0016L23.5537 53.3012C26.0932 53.549 28.6564 53.257 31.0751 52.4443L33.3405 51.6831C34.9726 51.1347 36.4246 50.1524 37.5408 48.8415V48.8415C38.6344 47.5571 39.3656 46.0044 39.6592 44.3432L40.3907 40.2034C40.516 39.4945 41.1828 39.0142 41.8948 39.1199L43.2582 39.3225C43.9927 39.4316 44.7418 39.2668 45.3628 38.8596V38.8596C46.0979 38.3776 46.5872 37.5997 46.7034 36.7284L46.8967 35.2786C47.0218 34.3402 46.9312 33.3855 46.6318 32.4873L46.2602 31.3723C46.0613 30.7757 45.6768 30.2583 45.1629 29.8957L45.0929 29.8462C44.6411 29.5275 44.1019 29.3564 43.549 29.3564V29.3564M5.31564 29.4657V29.4657C3.65358 26.9706 2.76674 24.0396 2.76674 21.0416V18.7421C2.76674 15.2968 3.77384 11.9266 5.66414 9.04618L5.79368 8.84877C7.69475 5.95191 10.4393 3.70847 13.6564 2.42162V2.42162C15.9962 1.4857 18.5155 1.0842 21.0304 1.24644L22.9122 1.36785C24.9347 1.49834 26.8967 2.11047 28.6346 3.15321L29.4685 3.65355C30.8987 4.51166 32.5352 4.96494 34.2031 4.96494V4.96494H34.9148C37.3694 4.96494 39.7324 5.89637 41.5268 7.57113V7.57113C42.4873 8.4676 43.2555 9.55003 43.7846 10.7526L44.2218 11.7464C45.4437 14.5232 45.7932 17.6057 45.2241 20.5857L43.549 29.3564M20.881 46.6688L21.8436 47.4939C22.5017 48.058 23.3399 48.368 24.2067 48.368V48.368C24.9895 48.368 25.7513 48.1151 26.3786 47.6469L27.406 46.8801M29.0832 29.3564H36.6822M19.1929 29.3564H10.9798M22.3531 39.4919L21.9632 41.4417C21.85 42.0077 21.6115 42.5412 21.2651 43.0029V43.0029C20.5351 43.9763 19.3894 44.5492 18.1726 44.5492H16.172H13.7312C12.7505 44.5492 11.7842 44.3129 10.9142 43.8605L10.4668 43.6278C9.51582 43.1332 8.76342 42.3273 8.3353 41.3447V41.3447C8.07834 40.7549 7.94572 40.1184 7.94572 39.4751V38.9299V38.8596C7.94572 37.3266 8.72219 35.898 10.0086 35.0641V35.0641C10.6458 34.6511 11.3768 34.4051 12.1342 34.3489L13.4792 34.2491C14.3341 34.1857 15.1937 34.2348 16.0359 34.3952L17.6427 34.7012C18.6582 34.8946 19.6046 35.3526 20.3864 36.0289V36.0289C21.3006 36.8198 21.9486 37.8735 22.2417 39.0462L22.3531 39.4919ZM22.3531 39.4919H25.1628M25.1628 39.4919L26.1208 37.959C26.4171 37.485 26.7813 37.0571 27.202 36.6891V36.6891C28.242 35.779 29.577 35.2774 30.959 35.2774H32.7488H35.7406C36.3598 35.2774 36.9706 35.4216 37.5245 35.6986V35.6986C38.7492 36.3109 39.5742 37.5085 39.7099 38.871L39.7732 39.5057C39.8354 40.1303 39.7828 40.761 39.6181 41.3666L39.4556 41.964C39.2952 42.5534 38.9837 43.0906 38.5518 43.5225V43.5225C37.8944 44.1799 37.0028 44.5492 36.0732 44.5492H34.4345H31.2952C30.7678 44.5492 30.2423 44.4845 29.7307 44.3566L29.485 44.2952C28.675 44.0927 27.9233 43.7044 27.2895 43.1611V43.1611C26.6307 42.5964 26.1183 41.8807 25.7961 41.0752L25.1628 39.4919Z" stroke="black" stroke-width="1.34862"/>
</svg>
