<svg width="30" height="27" viewBox="0 0 30 27" fill="none" xmlns="http://www.w3.org/2000/svg">
<path d="M7.0746 6.64627C8.58923 -0.814392 13.6283 0.692492 15.9585 2.37852C21.6675 -1.41504 24.1628 3.74841 24.6968 6.80433C31.6771 7.84948 30.7062 16.8065 26.2988 17.7108C26.5901 22.9269 24.3467 25.8564 22.3077 25.9302C20.8513 25.9829 16.2207 26.0566 11.4437 25.9302C6.6668 25.8037 5.95803 20.3979 6.20077 17.7108C0.607714 16.2796 2.54942 7.32259 7.0746 6.64627Z" fill="black" stroke="black" stroke-width="0.3"/>
<path d="M5.43205 6.35818C6.99205 -0.721818 12.182 0.708182 14.582 2.30818C20.4621 -1.29182 23.032 3.60818 23.582 6.50818C30.7714 7.5 29.7714 16 25.232 16.8582C25.532 21.8082 23.2214 24.5882 21.1214 24.6582C19.6214 24.7082 14.852 24.7782 9.93204 24.6582C5.01204 24.5382 4.28205 19.4082 4.53205 16.8582C-1.22852 15.5 0.771348 7 5.43205 6.35818Z" fill="white" stroke="black" stroke-width="0.3"/>
<path d="M10.682 15.2082L11.5559 14.1886C11.9821 13.6914 12.4978 13.2822 13.0736 12.9807C13.5577 12.7272 14.1106 12.6582 14.657 12.6582C15.2034 12.6582 15.7563 12.7272 16.2404 12.9807C16.8162 13.2822 17.3319 13.6914 17.7581 14.1886L18.632 15.2082L19.7439 16.219C20.0983 16.5412 20.3775 16.9374 20.5617 17.3795L20.6741 17.6492C20.9049 18.2031 20.9275 18.8218 20.7377 19.391C20.5411 19.981 20.1305 20.4757 19.5869 20.7777L19.449 20.8543C19.2056 20.9895 18.944 21.0889 18.6722 21.1493L18.386 21.2129C17.952 21.3093 17.5069 21.3464 17.063 21.323C15.511 21.2073 13.9528 21.2038 12.4004 21.3125L12.251 21.323C11.8071 21.3464 11.362 21.3093 10.928 21.2129L10.6418 21.1493C10.37 21.0889 10.1084 20.9895 9.865 20.8543L9.7271 20.7777C9.18353 20.4757 8.77291 19.981 8.57627 19.391C8.38652 18.8218 8.40912 18.2031 8.63991 17.6492L8.7523 17.3795C8.93651 16.9374 9.21569 16.5412 9.57007 16.219L10.682 15.2082Z" fill="#AA9CE8" stroke="#AA9CE8" stroke-width="0.3"/>
<ellipse cx="6.48202" cy="12.0582" rx="2.1" ry="2.4" fill="#AA9CE8"/>
<ellipse cx="10.982" cy="6.6583" rx="2.1" ry="2.4" fill="#AA9CE8"/>
<ellipse cx="18.2706" cy="6.68951" rx="2.1" ry="2.4" transform="rotate(10.1064 18.2706 6.68951)" fill="#AA9CE8"/>
<ellipse cx="23.0693" cy="12.0264" rx="2.1" ry="2.4" transform="rotate(19.7403 23.0693 12.0264)" fill="#AA9CE8"/>
<path d="M23.6305 11.3565L23.582 11.3081C23.4164 11.1424 23.4164 10.8738 23.582 10.7081C23.6693 10.6209 23.8059 10.6074 23.9085 10.6758L24.031 10.7574C24.1277 10.8219 24.1948 10.9221 24.2176 11.0361L24.2957 11.4264C24.3195 11.5455 24.3118 11.6687 24.2734 11.7839L24.2075 11.9816C24.1912 12.0306 24.1561 12.0711 24.1099 12.0942C23.9952 12.1515 23.8572 12.0841 23.8321 11.9583L23.7602 11.599C23.7418 11.5071 23.6967 11.4228 23.6305 11.3565Z" fill="#DDD5FF" stroke="#DDD5FF" stroke-width="0.3"/>
<path d="M18.8305 5.95662L18.7821 5.9082C18.6164 5.74252 18.6164 5.47389 18.7821 5.3082C18.8693 5.22098 19.0059 5.20745 19.1086 5.27587L19.231 5.3575C19.3277 5.42198 19.3949 5.52224 19.4177 5.63622L19.4957 6.02649C19.5195 6.14557 19.5119 6.2688 19.4735 6.384L19.4075 6.58173C19.3912 6.63069 19.3561 6.67117 19.31 6.69425C19.1952 6.75164 19.0573 6.68418 19.0321 6.55835L18.9602 6.19907C18.9419 6.10722 18.8967 6.02286 18.8305 5.95662Z" fill="#DDD5FF" stroke="#DDD5FF" stroke-width="0.3"/>
<path d="M11.6305 5.95662L11.582 5.9082C11.4164 5.74252 11.4164 5.47389 11.582 5.3082C11.6693 5.22098 11.8059 5.20745 11.9085 5.27587L12.031 5.3575C12.1277 5.42198 12.1948 5.52224 12.2176 5.63622L12.2957 6.02649C12.3195 6.14557 12.3118 6.2688 12.2734 6.384L12.2075 6.58173C12.1912 6.63069 12.1561 6.67117 12.1099 6.69425C11.9952 6.75164 11.8572 6.68418 11.8321 6.55835L11.7602 6.19907C11.7418 6.10722 11.6967 6.02286 11.6305 5.95662Z" fill="#DDD5FF" stroke="#DDD5FF" stroke-width="0.3"/>
<path d="M6.5455 11.2835L6.48074 11.2612C6.25915 11.1851 6.14125 10.9437 6.21741 10.7221C6.25751 10.6055 6.37436 10.5333 6.49661 10.5498L6.64246 10.5694C6.75766 10.5849 6.86198 10.6455 6.93249 10.7379L7.17391 11.0543C7.24757 11.1509 7.29476 11.265 7.31081 11.3853L7.33837 11.5919C7.34519 11.6431 7.33141 11.6949 7.30006 11.7359C7.22212 11.8378 7.06858 11.8377 6.99074 11.7357L6.76849 11.4444C6.71167 11.3699 6.63408 11.3139 6.5455 11.2835Z" fill="#DDD5FF" stroke="#DDD5FF" stroke-width="0.3"/>
<path d="M16.1455 14.8836L16.0808 14.8613C15.8592 14.7852 15.7413 14.5438 15.8175 14.3222C15.8575 14.2056 15.9744 14.1334 16.0966 14.1499L16.2425 14.1695C16.3577 14.185 16.462 14.2456 16.5325 14.338L16.7739 14.6544C16.8476 14.751 16.8948 14.8651 16.9109 14.9854L16.9384 15.192C16.9452 15.2432 16.9315 15.295 16.9001 15.336C16.8222 15.4379 16.6686 15.4378 16.5908 15.3358L16.3685 15.0445C16.3117 14.97 16.2341 14.914 16.1455 14.8836Z" fill="#DDD5FF" stroke="#DDD5FF" stroke-width="0.3"/>
<path d="M18.5559 17.1499L18.0416 16.9335C17.8942 16.8715 17.82 16.7058 17.872 16.5545C17.9009 16.4704 17.9651 16.4032 18.0477 16.3706L18.1058 16.3476C18.2466 16.2919 18.4061 16.3125 18.528 16.4022L19.0981 16.8213C19.2821 16.9566 19.4152 17.1498 19.476 17.3699L19.7547 18.378C19.7936 18.5189 19.6877 18.6581 19.5415 18.6581C19.4463 18.6581 19.3618 18.5972 19.3317 18.5069L19.0612 17.6953C18.9792 17.4492 18.795 17.2505 18.5559 17.1499Z" fill="#DDD5FF" stroke="#DDD5FF" stroke-width="0.3"/>
<path d="M23.6305 11.3565L23.582 11.3081C23.4164 11.1424 23.4164 10.8738 23.582 10.7081C23.6693 10.6209 23.8059 10.6074 23.9085 10.6758L24.031 10.7574C24.1277 10.8219 24.1948 10.9221 24.2176 11.0361L24.2957 11.4264C24.3195 11.5455 24.3118 11.6687 24.2734 11.7839L24.2075 11.9816C24.1912 12.0306 24.1561 12.0711 24.1099 12.0942C23.9952 12.1515 23.8572 12.0841 23.8321 11.9583L23.7602 11.599C23.7418 11.5071 23.6967 11.4228 23.6305 11.3565Z" fill="#DDD5FF" stroke="#DDD5FF" stroke-width="0.3"/>
</svg>
