<svg width="50" height="56" viewBox="0 0 50 56" fill="none" xmlns="http://www.w3.org/2000/svg">
<path d="M18.3445 26.5026L18.4568 26.0534C18.4918 25.9135 18.5641 25.7858 18.6661 25.6839C18.9722 25.3777 19.4657 25.3733 19.7773 25.6706C19.7819 25.6749 19.7864 25.6794 19.7909 25.6839L19.8095 25.7025C19.8141 25.707 19.8185 25.7116 19.823 25.7162C19.9014 25.7984 19.9619 25.896 20.0007 26.0027C20.0032 26.0096 20.0057 26.0166 20.008 26.0237L20.0886 26.2653C20.0921 26.276 20.0956 26.2867 20.099 26.2975C20.1532 26.4705 20.1824 26.6503 20.1858 26.8315C20.186 26.8431 20.1861 26.8546 20.1861 26.8663V27.9218C20.1861 27.9303 20.186 27.9388 20.1858 27.9474C20.1811 28.134 20.1258 28.3159 20.0258 28.4736C20.0216 28.4801 20.0174 28.4867 20.0131 28.4931L19.9318 28.615C19.9282 28.6205 19.9244 28.626 19.9206 28.6314C19.7791 28.832 19.5487 28.9518 19.3024 28.9518C19.1018 28.9518 18.9094 28.8721 18.7675 28.7303L18.63 28.5927C18.4 28.3628 18.2709 28.051 18.2709 27.7258V27.101C18.2709 26.8992 18.2956 26.6983 18.3445 26.5026Z" fill="black"/>
<path d="M29.3338 26.5026L29.4461 26.0534C29.481 25.9135 29.5534 25.7858 29.6553 25.6839C29.9659 25.3732 30.4695 25.3732 30.7801 25.6839L30.7988 25.7025C30.889 25.7927 30.9569 25.9026 30.9973 26.0237L31.0778 26.2653C31.1424 26.459 31.1753 26.662 31.1753 26.8662V27.9218C31.1753 28.1251 31.1151 28.3239 31.0023 28.4931L30.9211 28.615C30.7808 28.8254 30.5446 28.9518 30.2917 28.9518C30.091 28.9518 29.8986 28.8721 29.7567 28.7303L29.6192 28.5927C29.3893 28.3628 29.2601 28.051 29.2601 27.7258V27.101C29.2601 26.8992 29.2849 26.6983 29.3338 26.5026Z" fill="black"/>
<path fill-rule="evenodd" clip-rule="evenodd" d="M20.6357 2.02397C19.7552 2.55229 18.7753 2.8935 17.757 3.02631L16.6961 3.16469C14.8152 3.41003 13.0137 4.07657 11.4261 5.11466L11.0095 5.38704C8.81802 6.81993 7.04627 8.80896 5.87532 11.1509L5.57264 11.7562C4.75491 13.3917 4.20176 15.1465 3.93379 16.9553L3.69326 18.5789C3.4906 19.9468 3.44471 21.3334 3.55646 22.7117L3.87208 26.6043C4.01965 28.4243 3.51029 30.2369 2.43633 31.7136V31.7136C1.0851 33.5715 0.642009 35.939 1.22988 38.1599L2.0754 41.3541C2.31376 42.2545 2.76711 43.0837 3.39653 43.7703V43.7703C4.45354 44.9234 4.99565 46.4571 4.89807 48.0183L4.82939 49.1173C4.81867 49.2888 4.79455 49.4592 4.75727 49.627V49.627C4.4985 50.7915 4.88869 52.0049 5.77768 52.8003L6.95701 53.8555C8.16748 54.9386 9.76533 55.4846 11.3855 55.3689L13.2061 55.2389C14.7125 55.1313 16.1689 54.653 17.4458 53.8465V53.8465C19.1129 52.7936 21.0751 52.3066 23.041 52.4578L28.3943 52.8696C28.9809 52.9148 29.5627 53.0092 30.1334 53.1519L32.3984 53.7181C34.029 54.1258 35.7565 53.7769 37.1012 52.7684V52.7684C37.5811 52.4085 38.1159 52.1282 38.6851 51.9385L38.7165 51.928C39.9835 51.5057 41.3577 51.5347 42.6058 52.0102L43.9705 52.5301C45.0287 52.9332 46.2181 52.7833 47.1432 52.1303V52.1303C48.5887 51.1099 49.0106 49.1517 48.1135 47.6266L47.3258 46.2874L46.0279 44.1909C44.9531 42.4547 45.0774 40.232 46.3389 38.6264V38.6264C46.6777 38.1952 46.9412 37.7098 47.1181 37.1907L47.5495 35.925C48.4809 33.1924 48.4545 30.2242 47.4746 27.5087L46.6133 25.1214L45.1883 22.0625L43.4677 18.635C42.1549 16.0198 41.1388 13.266 40.4383 10.425V10.425L40.2507 9.92929C38.3266 4.84406 33.704 1.27477 28.2975 0.699598L28.1381 0.682643C26.6895 0.528541 25.2256 0.611113 23.8035 0.927122L22.8598 1.13684C22.0756 1.31111 21.3246 1.61066 20.6357 2.02397V2.02397ZM10.8269 31.3612C9.4087 31.4901 7.928 31.1185 6.99927 30.039C5.85543 28.7094 4.99063 26.8371 6.53964 24.6426C7.42182 23.3929 8.33222 22.9027 9.17336 22.8498C10.0169 22.7967 10.7907 23.1835 11.3966 23.685V23.685C11.0679 21.2416 12.3028 18.8536 14.4866 17.7094L24.3249 12.5546C24.5964 12.4124 24.923 12.425 25.1827 12.5877L32.4795 17.1587C35.0243 18.7529 36.9861 21.1461 38.0585 23.951V23.951C38.0609 23.9574 38.0679 23.9607 38.0743 23.9584L40.4385 23.1277C41.0903 22.8986 41.8149 23.0359 42.3378 23.4874V23.4874V23.4874C42.8024 23.9521 43.1195 24.5436 43.2493 25.1877L43.3458 25.6667C43.4645 26.2559 43.475 26.8617 43.3767 27.4547L43.1377 28.8973C43.0798 29.2468 42.9669 29.5851 42.8031 29.8993V29.8993C42.2252 31.0082 41.0786 31.7037 39.8281 31.7037H39.0202C38.6342 31.7037 38.2877 31.9403 38.1472 32.2998L37.1192 34.9303C36.5301 36.4377 35.629 37.8034 34.4751 38.9381V38.9381C33.3807 40.0141 32.0818 40.8598 30.6551 41.4252L30.2181 41.5983C28.3456 42.3404 26.3333 42.6637 24.3226 42.5454L23.2952 42.4849C20.6998 42.3322 18.2204 41.3574 16.216 39.7016V39.7016C14.6553 38.4123 13.4385 36.7561 12.6747 34.8814L11.377 31.6959C11.2872 31.4755 11.0639 31.3397 10.8269 31.3612V31.3612Z" fill="black"/>
<path fill-rule="evenodd" clip-rule="evenodd" d="M6.53964 24.6426C4.99063 26.8371 5.85543 28.7094 6.99927 30.039C7.928 31.1185 9.4087 31.4901 10.8269 31.3612V31.3612C11.0639 31.3397 11.2872 31.4755 11.377 31.6959L12.6747 34.8814C13.4385 36.7561 14.6553 38.4123 16.216 39.7016V39.7016C18.2204 41.3574 20.6998 42.3322 23.2952 42.4849L24.3226 42.5454C26.3333 42.6637 28.3456 42.3404 30.2181 41.5983L30.6551 41.4252C32.0818 40.8598 33.3807 40.0141 34.4751 38.9381V38.9381C35.629 37.8034 36.5301 36.4377 37.1192 34.9303L38.1472 32.2998C38.2877 31.9403 38.6342 31.7037 39.0202 31.7037H39.8281C41.0786 31.7037 42.2252 31.0082 42.8031 29.8993V29.8993C42.9669 29.5851 43.0798 29.2468 43.1377 28.8973L43.3767 27.4547C43.475 26.8617 43.4645 26.2559 43.3458 25.6667L43.2493 25.1877C43.1195 24.5436 42.8024 23.9521 42.3378 23.4874V23.4874V23.4874C41.8149 23.0359 41.0903 22.8986 40.4385 23.1277L38.0743 23.9584C38.0679 23.9607 38.0609 23.9574 38.0585 23.951V23.951C36.9861 21.1461 35.0243 18.7529 32.4795 17.1587L25.1827 12.5877C24.923 12.425 24.5964 12.4124 24.3249 12.5546L14.4866 17.7094C12.3028 18.8536 11.0679 21.2416 11.3966 23.685V23.685C10.7907 23.1835 10.0169 22.7967 9.17336 22.8498C8.33222 22.9027 7.42182 23.3929 6.53964 24.6426ZM18.4565 26.0534C18.4915 25.9135 18.5638 25.7858 18.6657 25.6839L18.679 25.6706C18.9823 25.3673 19.474 25.3673 19.7773 25.6706V25.6706C19.7819 25.6749 19.7864 25.6794 19.7909 25.6839L19.8095 25.7025C19.8141 25.707 19.8185 25.7116 19.823 25.7162L19.8248 25.7181C19.9048 25.798 19.965 25.8955 20.0007 26.0027V26.0027C20.0032 26.0096 20.0057 26.0166 20.008 26.0237L20.0886 26.2653C20.0921 26.276 20.0956 26.2867 20.099 26.2975V26.2975C20.1563 26.4695 20.1858 26.6502 20.1858 26.8315V26.8315C20.186 26.8431 20.1861 26.8546 20.1861 26.8663V27.9218C20.1861 27.9303 20.186 27.9388 20.1858 27.9474V27.9474C20.1858 28.134 20.1294 28.3183 20.0258 28.4736V28.4736C20.0216 28.4801 20.0174 28.4867 20.0131 28.4931L19.9318 28.615C19.9282 28.6205 19.9244 28.626 19.9206 28.6314L19.707 28.9518H19.3024H18.9888V28.9518C18.5289 28.492 18.2706 27.8683 18.2706 27.218V27.101C18.2706 26.8992 18.2953 26.6983 18.3442 26.5026L18.4565 26.0534ZM29.3338 26.5026L29.4461 26.0534C29.481 25.9135 29.5534 25.7858 29.6553 25.6839C29.9659 25.3732 30.4695 25.3732 30.7801 25.6839L30.7988 25.7025C30.889 25.7927 30.9569 25.9026 30.9973 26.0237L31.0778 26.2653C31.1424 26.459 31.1753 26.662 31.1753 26.8662V27.9218C31.1753 28.1251 31.1151 28.3239 31.0023 28.4931L30.9211 28.615C30.7808 28.8254 30.5446 28.9518 30.2917 28.9518C30.091 28.9518 29.8986 28.8721 29.7567 28.7303L29.6192 28.5927C29.3893 28.3628 29.2601 28.051 29.2601 27.7258V27.101C29.2601 26.8992 29.2849 26.6983 29.3338 26.5026Z" fill="white"/>
<path d="M12.2852 24.6426C12.0638 24.329 11.7605 23.9863 11.3966 23.685M11.3966 23.685V23.685C11.0679 21.2416 12.3028 18.8536 14.4866 17.7094L24.3249 12.5546C24.5964 12.4124 24.923 12.425 25.1827 12.5877L32.4795 17.1587C35.0243 18.7529 36.9861 21.1461 38.0585 23.951V23.951C38.0609 23.9574 38.0679 23.9607 38.0743 23.9584L40.4385 23.1277C41.0903 22.8986 41.8149 23.0359 42.3378 23.4874V23.4874V23.4874C42.8024 23.9521 43.1195 24.5436 43.2493 25.1877L43.3458 25.6667C43.4645 26.2559 43.475 26.8617 43.3767 27.4547L43.1377 28.8973C43.0798 29.2468 42.9669 29.5851 42.8031 29.8993V29.8993C42.2252 31.0082 41.0786 31.7037 39.8281 31.7037H39.0202C38.6342 31.7037 38.2877 31.9403 38.1472 32.2998L37.1192 34.9303C36.5301 36.4377 35.629 37.8034 34.4751 38.9381V38.9381C33.3807 40.0141 32.0818 40.8598 30.6551 41.4252L30.2181 41.5983C28.3456 42.3404 26.3333 42.6637 24.3226 42.5454L23.2952 42.4849C20.6998 42.3322 18.2204 41.3574 16.216 39.7016V39.7016C14.6553 38.4123 13.4385 36.7561 12.6747 34.8814L11.377 31.6959C11.2872 31.4755 11.0639 31.3397 10.8269 31.3612V31.3612C9.4087 31.4901 7.928 31.1185 6.99927 30.039C5.85543 28.7094 4.99063 26.8371 6.53964 24.6426C7.42182 23.3929 8.33222 22.9027 9.17336 22.8498C10.0169 22.7967 10.7907 23.1835 11.3966 23.685ZM23.298 31.2249V31.2249C23.9051 30.916 24.6329 30.9662 25.1919 31.3555L25.692 31.7037M21.6222 35.5905L22.2086 36.0094C22.9171 36.5154 23.766 36.7874 24.6366 36.7874V36.7874C25.1755 36.7874 25.7093 36.6832 26.2085 36.4804L27.3753 36.0066M18.9888 28.9518V28.9518C18.5289 28.492 18.2706 27.8683 18.2706 27.218V27.101C18.2706 26.8992 18.2953 26.6983 18.3442 26.5026L18.4565 26.0534C18.4915 25.9135 18.5638 25.7858 18.6657 25.6839L18.679 25.6706C18.9823 25.3673 19.474 25.3673 19.7773 25.6706V25.6706M18.9888 28.9518H19.707M18.9888 28.9518H19.3024M19.707 28.9518L19.9206 28.6314M19.707 28.9518H19.3024M19.3024 28.9518C19.1018 28.9518 18.9094 28.8721 18.7675 28.7303L18.63 28.5927C18.4 28.3628 18.2709 28.051 18.2709 27.7258V27.101C18.2709 26.8992 18.2956 26.6983 18.3445 26.5026L18.4568 26.0534C18.4918 25.9135 18.5641 25.7858 18.6661 25.6839C18.9722 25.3777 19.4657 25.3733 19.7773 25.6706M19.3024 28.9518C19.5487 28.9518 19.7791 28.832 19.9206 28.6314M28.8003 22.7574V22.7574C30.3613 22.6128 31.9343 22.8411 33.3899 23.4233L33.5503 23.4874M20.4878 22.5374L19.6343 22.4718C18.1832 22.3602 16.7345 22.7161 15.5003 23.4874V23.4874M19.7773 25.6706C19.7819 25.6749 19.7864 25.6794 19.7909 25.6839L19.8095 25.7025C19.8141 25.707 19.8185 25.7116 19.823 25.7162M19.7773 25.6706L19.823 25.7162M19.823 25.7162L19.8248 25.7181C19.9048 25.798 19.965 25.8955 20.0007 26.0027V26.0027M19.823 25.7162C19.9014 25.7984 19.9619 25.896 20.0007 26.0027M20.0007 26.0027C20.0032 26.0096 20.0057 26.0166 20.008 26.0237L20.0886 26.2653C20.0921 26.276 20.0956 26.2867 20.099 26.2975M20.0007 26.0027L20.099 26.2975M20.099 26.2975V26.2975C20.1563 26.4695 20.1858 26.6502 20.1858 26.8315V26.8315M20.099 26.2975C20.1532 26.4705 20.1824 26.6503 20.1858 26.8315M20.1858 26.8315C20.186 26.8431 20.1861 26.8546 20.1861 26.8663V27.9218C20.1861 27.9303 20.186 27.9388 20.1858 27.9474M20.1858 26.8315V27.9474M20.1858 27.9474V27.9474C20.1858 28.134 20.1294 28.3183 20.0258 28.4736V28.4736M20.1858 27.9474C20.1811 28.134 20.1258 28.3159 20.0258 28.4736M20.0258 28.4736C20.0216 28.4801 20.0174 28.4867 20.0131 28.4931L19.9318 28.615C19.9282 28.6205 19.9244 28.626 19.9206 28.6314M20.0258 28.4736L19.9206 28.6314M29.4461 26.0534L29.3338 26.5026C29.2849 26.6983 29.2601 26.8992 29.2601 27.101V27.7258C29.2601 28.051 29.3893 28.3628 29.6192 28.5927L29.7567 28.7303C29.8986 28.8721 30.091 28.9518 30.2917 28.9518C30.5446 28.9518 30.7808 28.8254 30.9211 28.615L31.0023 28.4931C31.1151 28.3239 31.1753 28.1251 31.1753 27.9218V26.8662C31.1753 26.662 31.1424 26.459 31.0778 26.2653L30.9973 26.0237C30.9569 25.9026 30.889 25.7927 30.7988 25.7025L30.7801 25.6839C30.4695 25.3732 29.9659 25.3732 29.6553 25.6839C29.5534 25.7858 29.481 25.9135 29.4461 26.0534ZM47.3258 46.2874L48.1135 47.6266C49.0106 49.1517 48.5887 51.1099 47.1432 52.1303V52.1303C46.2181 52.7833 45.0287 52.9332 43.9705 52.5301L42.6058 52.0102C41.3577 51.5347 39.9835 51.5057 38.7165 51.928L38.6851 51.9385C38.1159 52.1282 37.5811 52.4085 37.1012 52.7684V52.7684C35.7565 53.7769 34.029 54.1258 32.3984 53.7181L30.1334 53.1519C29.5627 53.0092 28.9809 52.9148 28.3943 52.8696L23.041 52.4578C21.0751 52.3066 19.1129 52.7936 17.4458 53.8465V53.8465C16.1689 54.653 14.7125 55.1313 13.2061 55.2389L11.3855 55.3689C9.76533 55.4846 8.16748 54.9386 6.95701 53.8555L5.77768 52.8003C4.88869 52.0049 4.4985 50.7915 4.75727 49.627V49.627C4.79455 49.4592 4.81867 49.2888 4.82939 49.1173L4.89807 48.0183C4.99565 46.4571 4.45354 44.9234 3.39653 43.7703V43.7703C2.76711 43.0837 2.31376 42.2545 2.0754 41.3541L1.22988 38.1599C0.642009 35.939 1.0851 33.5715 2.43633 31.7136V31.7136C3.51029 30.2369 4.01965 28.4243 3.87208 26.6043L3.55646 22.7117C3.44471 21.3334 3.4906 19.9468 3.69326 18.5789L3.93379 16.9553C4.20176 15.1465 4.75491 13.3917 5.57264 11.7562L5.87532 11.1509C7.04627 8.80896 8.81802 6.81993 11.0095 5.38704L11.4261 5.11466C13.0137 4.07657 14.8152 3.41003 16.6961 3.16469L17.757 3.02631C18.7753 2.8935 19.7552 2.55229 20.6357 2.02397V2.02397C21.3246 1.61066 22.0756 1.31111 22.8598 1.13684L23.8035 0.927122C25.2256 0.611113 26.6895 0.528541 28.1381 0.682643L28.2975 0.699598C33.704 1.27477 38.3266 4.84406 40.2507 9.92929L40.4383 10.425V10.425C41.1388 13.266 42.1549 16.0198 43.4677 18.635L45.1883 22.0625L46.6133 25.1214L47.4746 27.5087C48.4545 30.2242 48.4809 33.1924 47.5495 35.925L47.1181 37.1907C46.9412 37.7098 46.6777 38.1952 46.3389 38.6264V38.6264C45.0774 40.232 44.9531 42.4547 46.0279 44.1909L47.3258 46.2874Z" stroke="black" stroke-width="1.14"/>
</svg>
