<svg width="43" height="49" viewBox="0 0 43 49" fill="none" xmlns="http://www.w3.org/2000/svg">
<path d="M14.4939 30.1738L14.6121 29.701C14.6489 29.5538 14.7251 29.4193 14.8324 29.312C15.1546 28.9898 15.6741 28.9851 16.0021 29.298C16.0069 29.3026 16.0117 29.3073 16.0164 29.312L16.036 29.3316C16.0408 29.3364 16.0455 29.3412 16.0501 29.3461C16.1327 29.4326 16.1964 29.5353 16.2373 29.6476C16.2399 29.6549 16.2425 29.6623 16.245 29.6697L16.3297 29.924C16.3335 29.9353 16.3371 29.9466 16.3407 29.9579C16.3978 30.14 16.4286 30.3293 16.432 30.5201C16.4322 30.5277 16.4323 30.5352 16.4323 30.5427C16.4324 30.5473 16.4324 30.552 16.4324 30.5566V31.6677C16.4324 31.6767 16.4323 31.6856 16.432 31.6946C16.4272 31.8911 16.369 32.0825 16.2637 32.2485C16.2593 32.2555 16.2548 32.2623 16.2503 32.2692L16.1648 32.3974C16.1609 32.4032 16.1569 32.409 16.1529 32.4147C16.004 32.6259 15.7614 32.752 15.5022 32.752C15.291 32.752 15.0885 32.6681 14.9392 32.5188L14.7944 32.374C14.5524 32.132 14.4164 31.8037 14.4164 31.4614V30.8037C14.4164 30.5914 14.4424 30.3798 14.4939 30.1738Z" fill="black"/>
<path d="M26.8416 30.3378L26.9598 29.865C26.9966 29.7177 27.0727 29.5833 27.18 29.476C27.507 29.149 28.0371 29.149 28.3641 29.476L28.3837 29.4956C28.4786 29.5905 28.5502 29.7063 28.5926 29.8337L28.6774 30.088C28.7454 30.292 28.78 30.5056 28.78 30.7206V31.8317C28.78 32.0457 28.7167 32.255 28.5979 32.4331L28.5124 32.5614C28.3648 32.7829 28.1161 32.916 27.8499 32.916C27.6387 32.916 27.4362 32.8321 27.2868 32.6827L27.142 32.538C26.9 32.2959 26.764 31.9677 26.764 31.6254V30.9677C26.764 30.7553 26.7901 30.5438 26.8416 30.3378Z" fill="black"/>
<path d="M7.18029 27.208C6.80591 24.4247 7.25265 21.5121 9.1648 19.4553C11.4651 16.981 14.9378 14.4893 19.204 14.356C25.6552 14.1544 29.956 15.28 31.3 15.868C32.9169 16.7919 35.8462 20.0021 35.7029 25.8092C35.6843 26.5637 36.4256 27.1444 37.1323 26.8794L38.8601 26.2315L40.3505 18.4273C40.8569 15.7758 40.5459 13.033 39.4587 10.5621L39.0697 9.67788C38.5988 8.60781 37.9153 7.64466 37.0607 6.84698C35.464 5.35678 33.3614 4.528 31.1774 4.528H30.544C29.06 4.528 27.6038 4.12467 26.3313 3.36112L25.5893 2.91592C24.0429 1.9881 22.2971 1.44342 20.4975 1.32732L18.823 1.21929C16.5853 1.07492 14.3436 1.43217 12.2616 2.26496C9.39906 3.40999 6.95698 5.4062 5.26541 7.98382L5.15014 8.15948C3.46816 10.7225 2.57205 13.7213 2.57205 16.7869V18.833C2.57205 21.5006 3.36115 24.1086 4.84005 26.3288C5.72795 26.2729 6.54253 26.68 7.18029 27.208Z" fill="black"/>
<path fill-rule="evenodd" clip-rule="evenodd" d="M34.4222 28.5662C34.0348 28.1788 33.5167 27.9501 32.9694 27.9249L29.9678 27.787H26.3024C25.7335 27.787 25.176 27.9469 24.6935 28.2484C23.8886 28.7515 23.3653 29.6022 23.2792 30.5475L23.2154 31.2481C23.1809 31.6271 23.1952 32.009 23.2578 32.3844L23.5568 34.1773C23.6265 34.5955 23.8922 34.9551 24.2715 35.1447C25.5376 35.7777 26.9129 36.1634 28.3236 36.2809C28.915 36.3302 29.5094 36.3321 30.1012 36.2866L31.6575 36.1668C32.2046 36.1248 32.7361 35.965 33.2158 35.6985L33.34 35.6295C34.2382 35.1305 34.8721 34.2624 35.0738 33.2548C35.1973 32.637 35.2283 32.0043 35.1656 31.3774C35.0696 30.418 35.1404 29.6952 34.6905 28.9053C34.6189 28.7795 34.5245 28.6685 34.4222 28.5662ZM26.8416 30.3378L26.9598 29.865C26.9966 29.7177 27.0727 29.5833 27.18 29.476C27.507 29.149 28.0371 29.149 28.3641 29.476L28.3837 29.4956C28.4786 29.5905 28.5502 29.7063 28.5926 29.8337L28.6774 30.088C28.7454 30.292 28.78 30.5056 28.78 30.7206V31.8317C28.78 32.0457 28.7167 32.255 28.5979 32.4331L28.5124 32.5614C28.3648 32.7829 28.1161 32.916 27.8499 32.916C27.6387 32.916 27.4362 32.8321 27.2868 32.6827L27.142 32.538C26.9 32.2959 26.764 31.9677 26.764 31.6254V30.9677C26.764 30.7553 26.7901 30.5438 26.8416 30.3378Z" fill="white"/>
<path fill-rule="evenodd" clip-rule="evenodd" d="M20.1239 31.1148C20.1234 31.1094 20.123 31.1041 20.1225 31.0987C20.121 31.0826 20.1194 31.0665 20.1178 31.0504L20.1225 31.0987L20.1239 31.1148ZM16.432 30.5201C16.4322 30.5277 16.4323 30.5352 16.4323 30.5427L16.432 30.5201Z" fill="white"/>
<path fill-rule="evenodd" clip-rule="evenodd" d="M2.06771 28.216C0.575469 30.33 0.860237 32.3609 1.63269 33.8829C2.43195 35.4577 4.31118 35.9523 6.07199 35.8169C6.38469 35.7929 6.67362 35.9847 6.77279 36.2822L7.57596 38.6917C8.26052 40.7454 9.4613 42.5888 11.0631 44.045C13.0765 45.8753 15.6269 47.0067 18.335 47.2709L20.7048 47.5021C23.204 47.7459 25.7266 47.4585 28.1069 46.6587L29.8386 46.0769C31.2583 45.5999 32.5509 44.8063 33.6189 43.7563C34.9044 42.4922 35.8196 40.9005 36.2653 39.1535L37.1071 35.8536C37.2066 35.4639 37.6059 35.231 37.9941 35.3364L38.9453 35.5948C40.0355 35.8909 41.1839 35.3827 41.6978 34.3767C41.8211 34.1353 41.9024 33.8747 41.9382 33.6061L42.213 31.5447C42.3282 30.681 42.2448 29.8023 41.9692 28.9756L41.6399 27.9875C41.471 27.4809 41.146 27.0408 40.7114 26.7304L40.2731 26.4173C39.8624 26.1239 39.3326 26.0543 38.8601 26.2315L37.1323 26.8794C36.4256 27.1444 35.6843 26.5637 35.7029 25.8092C35.8462 20.0021 32.9169 16.7919 31.3 15.868C29.956 15.28 25.6552 14.1544 19.204 14.356C14.9378 14.4893 11.4651 16.981 9.1648 19.4553C7.25265 21.5121 6.80591 24.4247 7.18029 27.208C6.54253 26.68 5.72795 26.2729 4.84005 26.3288C3.95464 26.3844 2.99633 26.9004 2.06771 28.216ZM14.6118 29.701C14.6486 29.5538 14.7247 29.4193 14.832 29.312L14.846 29.298C15.1653 28.9788 15.6828 28.9788 16.0021 29.298L16.0164 29.312L16.036 29.3316L16.0501 29.3461L16.0521 29.3481C16.1362 29.4322 16.1996 29.5348 16.2373 29.6476C16.2399 29.6549 16.2425 29.6623 16.245 29.6697L16.3297 29.924C16.3335 29.9353 16.3371 29.9466 16.3407 29.9579C16.401 30.139 16.432 30.3293 16.432 30.5201L16.4323 30.5427L16.4324 30.5566V31.6677C16.4324 31.6767 16.4323 31.6856 16.432 31.6946C16.432 31.8911 16.3727 32.085 16.2637 32.2485L16.2503 32.2692L16.1648 32.3974L16.1529 32.4147L15.928 32.752H15.5022H15.172C14.688 32.2679 14.416 31.6114 14.416 30.9269V30.8037C14.416 30.5914 14.4421 30.3798 14.4936 30.1738L14.6118 29.701ZM14.92 27.46L18.952 27.964L19.0827 28.1595L19.1154 28.2091C19.6682 29.0382 20.0119 29.9945 20.1111 30.986C20.1134 31.0075 20.1157 31.0289 20.1178 31.0504L20.1225 31.0987L20.1239 31.1148C20.1824 31.699 20.1534 32.289 20.0383 32.8647C20.0343 32.8858 20.0302 32.9068 20.026 32.9279L19.708 34.516L17.44 35.776L15.0534 35.9596L15.0296 35.9614L14.164 36.028L13.2758 35.9539C11.8652 35.8364 10.4899 35.4507 9.22376 34.8177L8.62005 34.516L11.14 35.776L13.2758 35.9539C13.8593 36.0026 14.4457 36.0051 15.0296 35.9614L15.0534 35.9596L17.44 35.776L19.708 34.516L20.0383 32.8647C20.1476 32.2882 20.1764 31.6993 20.1239 31.1148L20.1225 31.0987L20.1111 30.986C20.0018 29.9951 19.6607 29.0438 19.1154 28.2091L18.952 27.964L14.92 27.46H11.2547C10.6857 27.46 10.1282 27.6199 9.64575 27.9214C8.8408 28.4245 8.31751 29.2752 8.23146 30.2205L8.16768 30.9211C8.13318 31.3001 8.1474 31.682 8.21001 32.0574L8.62005 34.516L9.22376 34.8177C10.4899 35.4507 11.8652 35.8364 13.2758 35.9539L11.14 35.776L8.62005 34.516L8.21001 32.0574C8.1474 31.682 8.13318 31.3001 8.16768 30.9211L8.23146 30.2205C8.31751 29.2752 8.8408 28.4245 9.64575 27.9214C10.1282 27.6199 10.6857 27.46 11.2547 27.46H14.92ZM29.9678 27.787L32.9694 27.9249C33.5167 27.9501 34.0348 28.1788 34.4222 28.5662C34.5245 28.6685 34.6189 28.7795 34.6905 28.9053C35.1404 29.6952 35.0696 30.418 35.1656 31.3774C35.2283 32.0043 35.1973 32.637 35.0738 33.2548C34.8721 34.2624 34.2382 35.1305 33.34 35.6295L33.2158 35.6985C32.7361 35.965 32.2046 36.1248 31.6575 36.1668L30.1012 36.2866C29.5094 36.3321 28.915 36.3302 28.3236 36.2809C26.9129 36.1634 25.5376 35.7777 24.2715 35.1447C23.8922 34.9551 23.6265 34.5955 23.5568 34.1773L23.2578 32.3844C23.1952 32.009 23.1809 31.6271 23.2154 31.2481L23.2792 30.5475C23.3653 29.6022 23.8886 28.7515 24.6935 28.2484C25.176 27.9469 25.7335 27.787 26.3024 27.787H29.9678Z" fill="white"/>
<path d="M8.11571 28.216C7.88265 27.8858 7.56336 27.5251 7.18029 27.208M7.18029 27.208V27.208C6.80591 24.4247 7.25265 21.5121 9.1648 19.4553C11.4651 16.981 14.9378 14.4893 19.204 14.356C25.6552 14.1544 29.956 15.28 31.3 15.868C32.9169 16.7919 35.8462 20.0021 35.7029 25.8092C35.6843 26.5637 36.4256 27.1444 37.1323 26.8794L38.8601 26.2315M7.18029 27.208C6.54253 26.68 5.72795 26.2729 4.84005 26.3288M4.84005 26.3288C3.95464 26.3844 2.99633 26.9004 2.06771 28.216C0.575469 30.33 0.860237 32.3609 1.63269 33.8829C2.43195 35.4577 4.31118 35.9523 6.07199 35.8169V35.8169C6.38469 35.7929 6.67362 35.9847 6.77279 36.2822L7.57596 38.6917C8.26052 40.7454 9.4613 42.5888 11.0631 44.045V44.045C13.0765 45.8753 15.6269 47.0067 18.335 47.2709L20.7048 47.5021C23.204 47.7459 25.7266 47.4585 28.1069 46.6587L29.8386 46.0769C31.2583 45.5999 32.5509 44.8063 33.6189 43.7563V43.7563C34.9045 42.4922 35.8196 40.9005 36.2653 39.1535L37.1071 35.8536C37.2066 35.4639 37.6059 35.231 37.9941 35.3364L38.9453 35.5948C40.0355 35.8909 41.1839 35.3827 41.6978 34.3767V34.3767C41.8211 34.1353 41.9024 33.8747 41.9382 33.6061L42.213 31.5447C42.3282 30.681 42.2448 29.8023 41.9692 28.9756L41.6399 27.9875C41.471 27.4809 41.146 27.0408 40.7114 26.7304L40.2731 26.4173C39.8624 26.1239 39.3326 26.0543 38.8601 26.2315V26.2315M4.84005 26.3288V26.3288C3.36115 24.1086 2.57205 21.5006 2.57205 18.833V16.7869C2.57205 13.7213 3.46816 10.7225 5.15014 8.15948L5.26541 7.98382C6.95698 5.4062 9.39906 3.40999 12.2616 2.26496V2.26496C14.3436 1.43217 16.5853 1.07492 18.823 1.21929L20.4975 1.32732C22.2971 1.44342 24.0429 1.9881 25.5893 2.91592L26.3313 3.36112C27.6038 4.12467 29.06 4.528 30.544 4.528V4.528H31.1774C33.3614 4.528 35.464 5.35678 37.0607 6.84698V6.84698C37.9153 7.64466 38.5988 8.60781 39.0697 9.67788L39.4587 10.5621C40.5459 13.033 40.8569 15.7758 40.3505 18.4273L38.8601 26.2315M20.212 36.028V36.028C20.8298 36.6458 21.7436 36.8615 22.5724 36.5852L22.732 36.532M17.944 40.312V40.312C19.0913 41.1315 20.466 41.572 21.8758 41.572H21.976V41.572C22.9517 41.572 23.8952 41.223 24.636 40.588L25.252 40.06M15.172 32.752V32.752C14.688 32.2679 14.416 31.6114 14.416 30.9269V30.8037C14.416 30.5914 14.4421 30.3798 14.4936 30.1738L14.6118 29.701C14.6486 29.5538 14.7247 29.4193 14.832 29.312L14.846 29.298C15.1653 28.9788 15.6828 28.9788 16.0021 29.298V29.298M15.172 32.752H15.928M15.172 32.752H15.5022M15.928 32.752L16.1529 32.4147M15.928 32.752H15.5022M18.952 27.964L14.92 27.46H11.2547C10.6857 27.46 10.1282 27.6199 9.64575 27.9214V27.9214C8.8408 28.4245 8.31751 29.2752 8.23146 30.2205L8.16768 30.9211C8.13318 31.3001 8.1474 31.682 8.21001 32.0574L8.62005 34.516M18.952 27.964L19.0827 28.1595M18.952 27.964L19.1154 28.2091M8.62005 34.516L11.14 35.776M8.62005 34.516L9.22376 34.8177C10.4899 35.4507 11.8652 35.8364 13.2758 35.9539M11.14 35.776L14.164 36.028M11.14 35.776L13.2758 35.9539M14.164 36.028L15.0296 35.9614M14.164 36.028L13.2758 35.9539M17.44 35.776L19.708 34.516M17.44 35.776L15.0534 35.9596M17.44 35.776L15.0296 35.9614M19.708 34.516L20.026 32.9279C20.0302 32.9068 20.0343 32.8858 20.0383 32.8647M19.708 34.516L20.0383 32.8647M16.1648 32.3974L16.2503 32.2692M16.1648 32.3974C16.1609 32.4032 16.1569 32.409 16.1529 32.4147M16.1648 32.3974L16.1529 32.4147M16.2503 32.2692C16.2548 32.2623 16.2593 32.2555 16.2637 32.2485M16.2503 32.2692L16.2637 32.2485M16.4324 30.5566V31.6677C16.4324 31.6767 16.4323 31.6856 16.432 31.6946M16.4324 30.5566C16.4324 30.552 16.4324 30.5473 16.4323 30.5427M16.4324 30.5566L16.4323 30.5427M16.036 29.3316L16.0164 29.312M16.036 29.3316C16.0408 29.3364 16.0455 29.3412 16.0501 29.3461M16.036 29.3316L16.0501 29.3461M16.0164 29.312C16.0117 29.3073 16.0069 29.3026 16.0021 29.298M16.0164 29.312L16.0021 29.298M15.0534 35.9596L15.0296 35.9614M15.0534 35.9596C15.0455 35.9602 15.0375 35.9608 15.0296 35.9614M19.0827 28.1595C19.0937 28.176 19.1046 28.1925 19.1154 28.2091M19.0827 28.1595L19.1154 28.2091M20.1178 31.0504C20.1157 31.0289 20.1134 31.0075 20.1111 30.986M20.1178 31.0504L20.1225 31.0987M20.1178 31.0504C20.1194 31.0665 20.121 31.0826 20.1225 31.0987M13.2758 35.9539C13.8593 36.0026 14.4457 36.0051 15.0296 35.9614M15.5022 32.752C15.291 32.752 15.0885 32.6681 14.9392 32.5188L14.7944 32.374C14.5524 32.132 14.4164 31.8037 14.4164 31.4614V30.8037C14.4164 30.5914 14.4424 30.3798 14.4939 30.1738L14.6121 29.701C14.6489 29.5538 14.7251 29.4193 14.8324 29.312C15.1546 28.9898 15.6741 28.9851 16.0021 29.298M15.5022 32.752C15.7614 32.752 16.004 32.6259 16.1529 32.4147M26.3024 25.192H33.064M17.188 25.192H9.88005M19.1154 28.2091V28.2091C19.6682 29.0382 20.0119 29.9945 20.1111 30.986V30.986M19.1154 28.2091C19.6607 29.0438 20.0018 29.9951 20.1111 30.986M20.1111 30.986L20.1225 31.0987M20.1239 31.1148V31.1148C20.1824 31.699 20.1534 32.289 20.0383 32.8647V32.8647M20.1239 31.1148C20.1764 31.6993 20.1476 32.2882 20.0383 32.8647M20.1239 31.1148L20.1225 31.0987M20.1239 31.1148C20.1235 31.1094 20.123 31.1041 20.1225 31.0987M16.0021 29.298L16.0501 29.3461M16.0501 29.3461L16.0521 29.3481C16.1362 29.4322 16.1996 29.5348 16.2373 29.6476V29.6476M16.0501 29.3461C16.1327 29.4326 16.1964 29.5353 16.2373 29.6476M16.2373 29.6476C16.2399 29.6549 16.2425 29.6623 16.245 29.6697L16.3297 29.924C16.3335 29.9353 16.3371 29.9466 16.3407 29.9579M16.2373 29.6476L16.3407 29.9579M16.3407 29.9579V29.9579C16.401 30.139 16.432 30.3293 16.432 30.5201V30.5201M16.3407 29.9579C16.3978 30.14 16.4286 30.3293 16.432 30.5201M16.432 30.5201C16.4322 30.5277 16.4323 30.5352 16.4323 30.5427M16.432 30.5201L16.4323 30.5427M16.432 31.6946V31.6946C16.432 31.8911 16.3727 32.085 16.2637 32.2485V32.2485M16.432 31.6946C16.4272 31.891 16.369 32.0825 16.2637 32.2485M16.432 31.6946L16.4323 30.5427M16.2637 32.2485L16.1529 32.4147M29.9678 27.787L32.9694 27.9249C33.5167 27.9501 34.0348 28.1788 34.4222 28.5662V28.5662C34.5245 28.6685 34.6189 28.7795 34.6905 28.9053C35.1404 29.6952 35.0696 30.418 35.1656 31.3774C35.2283 32.0043 35.1973 32.637 35.0738 33.2548V33.2548C34.8721 34.2624 34.2382 35.1305 33.34 35.6295L33.2158 35.6985C32.7361 35.965 32.2046 36.1248 31.6575 36.1668L30.1012 36.2866C29.5094 36.3321 28.915 36.3302 28.3236 36.2809C26.9129 36.1634 25.5376 35.7777 24.2715 35.1447V35.1447C23.8922 34.9551 23.6265 34.5955 23.5568 34.1773L23.2578 32.3844C23.1952 32.009 23.1809 31.6271 23.2154 31.2481L23.2792 30.5475C23.3653 29.6022 23.8886 28.7515 24.6935 28.2484C25.176 27.9469 25.7335 27.787 26.3024 27.787H29.9678ZM26.9598 29.865L26.8416 30.3378C26.7901 30.5438 26.764 30.7553 26.764 30.9677V31.6254C26.764 31.9677 26.9 32.2959 27.142 32.538L27.2868 32.6827C27.4362 32.8321 27.6387 32.916 27.8499 32.916C28.1161 32.916 28.3648 32.7829 28.5124 32.5614L28.5979 32.4331C28.7167 32.255 28.78 32.0457 28.78 31.8317V30.7206C28.78 30.5056 28.7454 30.292 28.6774 30.088L28.5926 29.8337C28.5502 29.7063 28.4786 29.5905 28.3837 29.4956L28.3641 29.476C28.0371 29.149 27.507 29.149 27.18 29.476C27.0727 29.5833 26.9966 29.7177 26.9598 29.865Z" stroke="black" stroke-width="1.2"/>
</svg>
